# xmcd
#
# Track frame offsets:
#	150
#	11668
#	23825
#	35298
#	45852
#	59422
#	75922
#	87613
#	101200
#	115104
#	129068
#	141445
#	154048
#	165873
#	177783
#	188155
#	198937
#	213651
#	226417
#	238847
#	249043
#	260773
#	273668
#	285795
#	296960
#
# Disc length: 4128 seconds
# Revision: 1
# Processed by: cddbd v1.5.2PL0 Copyright (c) Steve Scherf et al.
# Submitted via: dBpowerAMP V12.0
#
DISCID=53101e19
DTITLE=Various Artist - Blues Brothers and Soul Sisters
DYEAR=2013
DGENRE=Soul
TTITLE0=Otis Redding - These Arms Of Mine
TTITLE1=Dionne Warwick - Don't Make Me Over
TTITLE2=John Lee Hooker - Boom Boom
TTITLE3=Aretha Franklin - Just For You
TTITLE4=Bo Didley - I'm A Man
TTITLE5=Nina Simone - My Baby Just Cares For Me
TTITLE6=Albert King - I've Made Nights By Myself
TTITLE7=Etta James - At Last
TTITLE8=Howlin' Wolf - Smoke Stack Lightning
TTITLE9=Carla Thomas - I'll Bring It Home On Yourself
TTITLE10=Jerry Butler - Make It Easy On Yourself
TTITLE11=Mary Wells - Two Lovers
TTITLE12=Sam Cooke - Cupid
TTITLE13=Dee Clark - Raindrops
TTITLE14=Buddy Guy - First Time I Met The Blues
TTITLE15=Barbara Lynn - You'll Loose A Good Thing
TTITLE16=Muddy Waters - Baby Please Don't Go
TTITLE17=Gladys Knight and The Pips - Letter Full Of Tears
TTITLE18=James Brown - Please, Please, Please
TTITLE19=Barbara Lewis - My Mama Told Me
TTITLE20=Brook Benton - Still Waters Run Deep
TTITLE21=Ike and Tina Turner - A Fool For You
TTITLE22=Junior Wells - Two Headed Woman
TTITLE23=Irma Thomas - I Did My Part
TTITLE24=Stevie Wonder - Come Back Baby
EXTD=
EXTT0=
EXTT1=
EXTT2=
EXTT3=
EXTT4=
EXTT5=
EXTT6=
EXTT7=
EXTT8=
EXTT9=
EXTT10=
EXTT11=
EXTT12=
EXTT13=
EXTT14=
EXTT15=
EXTT16=
EXTT17=
EXTT18=
EXTT19=
EXTT20=
EXTT21=
EXTT22=
EXTT23=
EXTT24=
PLAYORDER=
